<svg width="178" height="53" viewBox="0 0 178 53" fill="none" xmlns="http://www.w3.org/2000/svg">
<g filter="url(#filter0_d_2_2)">
<path d="M4.52 44V0.199999H9.92V11V17.3H11.06L9.92 18.56C9.92 15.96 10.7 13.96 12.26 12.56C13.82 11.12 15.98 10.4 18.74 10.4C22.06 10.4 24.7 11.42 26.66 13.46C28.62 15.5 29.6 18.28 29.6 21.8V44H24.2V22.4C24.2 20.04 23.56 18.22 22.28 16.94C21.04 15.62 19.34 14.96 17.18 14.96C14.94 14.96 13.16 15.66 11.84 17.06C10.56 18.46 9.92 20.44 9.92 23V44H4.52ZM52.9766 44.6C50.3766 44.6 48.0966 44.08 46.1366 43.04C44.2166 42 42.7166 40.54 41.6366 38.66C40.5966 36.74 40.0766 34.52 40.0766 32V23C40.0766 20.44 40.5966 18.22 41.6366 16.34C42.7166 14.46 44.2166 13 46.1366 11.96C48.0966 10.92 50.3766 10.4 52.9766 10.4C55.5766 10.4 57.8366 10.92 59.7566 11.96C61.7166 13 63.2166 14.46 64.2566 16.34C65.3366 18.22 65.8766 20.44 65.8766 23V28.82H45.3566V32C45.3566 34.6 46.0166 36.6 47.3366 38C48.6566 39.36 50.5366 40.04 52.9766 40.04C55.0566 40.04 56.7366 39.68 58.0166 38.96C59.2966 38.2 60.0766 37.08 60.3566 35.6H65.7566C65.3966 38.36 64.0366 40.56 61.6766 42.2C59.3566 43.8 56.4566 44.6 52.9766 44.6ZM60.5966 25.22V23C60.5966 20.4 59.9366 18.4 58.6166 17C57.3366 15.6 55.4566 14.9 52.9766 14.9C50.5366 14.9 48.6566 15.6 47.3366 17C46.0166 18.4 45.3566 20.4 45.3566 23V24.74H61.0166L60.5966 25.22ZM93.4531 44C91.5331 44 89.8531 43.62 88.4131 42.86C86.9731 42.1 85.8531 41.02 85.0531 39.62C84.2531 38.22 83.8531 36.58 83.8531 34.7V5.12H72.7531V0.199999H89.2531V34.7C89.2531 36.06 89.6331 37.14 90.3931 37.94C91.1531 38.7 92.1731 39.08 93.4531 39.08H103.953V44H93.4531ZM129.43 44C127.51 44 125.83 43.62 124.39 42.86C122.95 42.1 121.83 41.02 121.03 39.62C120.23 38.22 119.83 36.58 119.83 34.7V5.12H108.73V0.199999H125.23V34.7C125.23 36.06 125.61 37.14 126.37 37.94C127.13 38.7 128.15 39.08 129.43 39.08H139.93V44H129.43ZM160.906 44.48C158.266 44.48 155.986 43.98 154.066 42.98C152.146 41.98 150.646 40.54 149.566 38.66C148.526 36.74 148.006 34.48 148.006 31.88V23.12C148.006 20.48 148.526 18.22 149.566 16.34C150.646 14.46 152.146 13.02 154.066 12.02C155.986 11.02 158.266 10.52 160.906 10.52C163.546 10.52 165.826 11.02 167.746 12.02C169.666 13.02 171.146 14.46 172.186 16.34C173.266 18.22 173.806 20.46 173.806 23.06V31.88C173.806 34.48 173.266 36.74 172.186 38.66C171.146 40.54 169.666 41.98 167.746 42.98C165.826 43.98 163.546 44.48 160.906 44.48ZM160.906 39.68C163.266 39.68 165.106 39.02 166.426 37.7C167.746 36.38 168.406 34.44 168.406 31.88V23.12C168.406 20.56 167.746 18.62 166.426 17.3C165.106 15.98 163.266 15.32 160.906 15.32C158.586 15.32 156.746 15.98 155.386 17.3C154.066 18.62 153.406 20.56 153.406 23.12V31.88C153.406 34.44 154.066 36.38 155.386 37.7C156.746 39.02 158.586 39.68 160.906 39.68Z" fill="#B80F0F" shape-rendering="crispEdges"/>
<path d="M4.52 44H-5.48L4.52 54V44ZM4.52 0.199999V-9.8L-5.48 0.199999H4.52ZM9.92 0.199999H19.92L9.92 -9.8V0.199999ZM9.92 17.3H-0.0799993L9.92 27.3V17.3ZM11.06 17.3L18.4754 24.0091L11.06 7.3V17.3ZM9.92 18.56H-0.0799993L17.3354 25.2691L9.92 18.56ZM12.26 12.56L18.9391 20.0024L19.0428 19.908L12.26 12.56ZM26.66 13.46L19.449 20.3883L19.449 20.3883L26.66 13.46ZM29.6 44V54L39.6 44H29.6ZM24.2 44H14.2L24.2 54V44ZM22.28 16.94L14.9915 23.7868L15.2089 24.0111L22.28 16.94ZM11.84 17.06L4.56411 10.1999L4.45971 10.3123L11.84 17.06ZM9.92 44V54L19.92 44H9.92ZM14.52 44V0.199999H-5.48V44H14.52ZM4.52 10.2H9.92V-9.8H4.52V10.2ZM-0.0799993 0.199999V11H19.92V0.199999H-0.0799993ZM-0.0799993 11V17.3H19.92V11H-0.0799993ZM9.92 27.3H11.06V7.3H9.92V27.3ZM3.64464 10.5909L2.50464 11.8509L17.3354 25.2691L18.4754 24.0091L3.64464 10.5909ZM19.92 18.56C19.92 18.2478 19.9675 18.3691 19.8215 18.7435C19.6569 19.1656 19.3531 19.6309 18.9391 20.0024L5.5809 5.11758C1.41558 8.85569 -0.0799993 13.8559 -0.0799993 18.56H19.92ZM19.0428 19.908C18.8879 20.051 18.7235 20.1702 18.5639 20.2629C18.406 20.3545 18.2813 20.4038 18.2123 20.4268C18.0827 20.47 18.2145 20.4 18.74 20.4V0.4C14.2429 0.4 9.38534 1.60445 5.47721 5.21196L19.0428 19.908ZM18.74 20.4C19.0591 20.4 19.279 20.4246 19.4156 20.4479C19.4836 20.4596 19.5314 20.471 19.5613 20.4791C19.5911 20.4872 19.6051 20.4926 19.606 20.493C19.6068 20.4933 19.5977 20.4898 19.5812 20.4813C19.5647 20.4728 19.545 20.4614 19.5239 20.4473C19.5027 20.4333 19.4845 20.4194 19.4701 20.4073C19.4557 20.3953 19.4487 20.388 19.449 20.3883L33.871 6.53174C29.6978 2.18814 24.2692 0.4 18.74 0.4V20.4ZM19.449 20.3883C19.3987 20.3359 19.3979 20.2977 19.4338 20.3997C19.4823 20.537 19.6 20.9586 19.6 21.8H39.6C39.6 16.3604 38.0327 10.8633 33.871 6.53173L19.449 20.3883ZM19.6 21.8V44H39.6V21.8H19.6ZM29.6 34H24.2V54H29.6V34ZM34.2 44V22.4H14.2V44H34.2ZM34.2 22.4C34.2 18.2266 33.0262 13.5441 29.3511 9.86893L15.2089 24.0111C14.7214 23.5236 14.4295 22.9898 14.2863 22.5824C14.1584 22.2188 14.2 22.1063 14.2 22.4H34.2ZM29.5685 10.0932C26.0771 6.37664 21.5245 4.96 17.18 4.96V24.96C17.2456 24.96 16.9514 24.9695 16.4558 24.7771C15.9232 24.5703 15.4017 24.2234 14.9915 23.7868L29.5685 10.0932ZM17.18 4.96C12.6789 4.96 8.08707 6.46339 4.56411 10.1999L19.1159 23.9201C18.7717 24.2852 18.3141 24.5988 17.8248 24.7912C17.3678 24.9709 17.1019 24.96 17.18 24.96V4.96ZM4.45971 10.3123C0.979369 14.1189 -0.0799993 18.8286 -0.0799993 23H19.92C19.92 22.5333 19.9805 22.4689 19.9153 22.6706C19.8379 22.9099 19.6371 23.3518 19.2203 23.8077L4.45971 10.3123ZM-0.0799993 23V44H19.92V23H-0.0799993ZM9.92 34H4.52V54H9.92V34ZM46.1366 43.04L41.3737 51.8329L41.4494 51.8735L46.1366 43.04ZM41.6366 38.66L32.8436 43.4228L32.9655 43.6412L41.6366 38.66ZM41.6366 16.34L32.9655 11.3588L32.8862 11.4994L41.6366 16.34ZM46.1366 11.96L41.4494 3.1265L41.3737 3.16708L46.1366 11.96ZM59.7566 11.96L54.9937 20.7529L55.0694 20.7935L59.7566 11.96ZM64.2566 16.34L55.5062 21.1806L55.5855 21.3212L64.2566 16.34ZM65.8766 28.82V38.82L75.8766 28.82H65.8766ZM45.3566 28.82V18.82L35.3566 28.82H45.3566ZM47.3366 38L40.0607 44.8601L40.1608 44.9648L47.3366 38ZM58.0166 38.96L62.9192 47.6758L63.1219 47.5585L58.0166 38.96ZM60.3566 35.6V25.6L50.5309 33.7411L60.3566 35.6ZM65.7566 35.6L75.6726 36.8934L65.7566 25.6V35.6ZM61.6766 42.2L67.3539 50.4321L67.3831 50.4119L61.6766 42.2ZM60.5966 25.22H50.5966L68.1223 31.8051L60.5966 25.22ZM58.6166 17L51.2363 23.7477L51.3407 23.8601L58.6166 17ZM47.3366 17L54.6125 23.8601L54.6125 23.8601L47.3366 17ZM45.3566 24.74H35.3566L45.3566 34.74V24.74ZM61.0166 24.74L68.5423 31.3251L61.0166 14.74V24.74ZM52.9766 34.6C51.7297 34.6 51.1107 34.3588 50.8237 34.2065L41.4494 51.8735C45.0824 53.8012 49.0235 54.6 52.9766 54.6V34.6ZM50.8994 34.2471C50.5982 34.0839 50.4567 33.9382 50.3076 33.6788L32.9655 43.6412C34.9764 47.1418 37.835 49.9161 41.3737 51.8329L50.8994 34.2471ZM50.4295 33.8972C50.2962 33.6511 50.0766 33.1149 50.0766 32H30.0766C30.0766 35.9251 30.897 39.8289 32.8436 43.4228L50.4295 33.8972ZM50.0766 32V23H30.0766V32H50.0766ZM50.0766 23C50.0766 21.8091 50.3104 21.319 50.3869 21.1806L32.8862 11.4994C30.8828 15.121 30.0766 19.0709 30.0766 23H50.0766ZM50.3076 21.3212C50.4567 21.0618 50.5982 20.9161 50.8994 20.7529L41.3737 3.16708C37.835 5.08391 34.9764 7.85823 32.9655 11.3588L50.3076 21.3212ZM50.8237 20.7935C51.1107 20.6412 51.7297 20.4 52.9766 20.4V0.4C49.0235 0.4 45.0824 1.19877 41.4494 3.1265L50.8237 20.7935ZM52.9766 20.4C54.2299 20.4 54.7914 20.6433 54.9937 20.7529L64.5194 3.16707C60.8817 1.19667 56.9233 0.4 52.9766 0.4V20.4ZM55.0694 20.7935C55.3758 20.9561 55.4368 21.0551 55.5062 21.1806L73.0069 11.4994C70.9963 7.86486 68.0573 5.04393 64.4437 3.12651L55.0694 20.7935ZM55.5855 21.3212C55.6491 21.432 55.8766 21.8703 55.8766 23H75.8766C75.8766 19.0097 75.024 15.008 72.9276 11.3588L55.5855 21.3212ZM55.8766 23V28.82H75.8766V23H55.8766ZM65.8766 18.82H45.3566V38.82H65.8766V18.82ZM35.3566 28.82V32H55.3566V28.82H35.3566ZM35.3566 32C35.3566 36.2375 36.4518 41.0325 40.0607 44.8601L54.6125 31.1399C55.0482 31.602 55.2632 32.0596 55.3478 32.3162C55.4192 32.5323 55.3566 32.475 55.3566 32H35.3566ZM40.1608 44.9648C43.8655 48.7818 48.6492 50.04 52.9766 50.04V30.04C52.6691 30.04 52.7767 29.9956 53.1379 30.1262C53.5446 30.2733 54.0577 30.5668 54.5124 31.0352L40.1608 44.9648ZM52.9766 50.04C56.099 50.04 59.6474 49.5161 62.9192 47.6758L53.1139 30.2442C53.4852 30.0354 53.7202 29.9879 53.7013 29.992C53.6932 29.9937 53.6319 30.0062 53.5085 30.018C53.3851 30.0298 53.2098 30.04 52.9766 30.04V50.04ZM63.1219 47.5585C66.9029 45.3136 69.376 41.7204 70.1823 37.4589L50.5309 33.7411C50.6256 33.2405 50.8598 32.5468 51.3555 31.8351C51.853 31.1206 52.4362 30.6434 52.9112 30.3615L63.1219 47.5585ZM60.3566 45.6H65.7566V25.6H60.3566V45.6ZM55.8406 34.3066C55.8333 34.3619 55.8299 34.3494 55.851 34.2887C55.8728 34.2258 55.9091 34.1451 55.9606 34.0618C56.0118 33.979 56.0574 33.927 56.0767 33.907C56.0941 33.8891 56.0681 33.92 55.97 33.9881L67.3831 50.4119C71.9736 47.2219 74.9345 42.5516 75.6726 36.8934L55.8406 34.3066ZM55.9992 33.9679C55.7048 34.1709 54.9093 34.6 52.9766 34.6V54.6C58.0038 54.6 63.0083 53.4291 67.3539 50.4321L55.9992 33.9679ZM70.5966 25.22V23H50.5966V25.22H70.5966ZM70.5966 23C70.5966 18.7625 69.5014 13.9675 65.8925 10.1399L51.3407 23.8601C50.905 23.398 50.69 22.9404 50.6053 22.6838C50.534 22.4677 50.5966 22.525 50.5966 23H70.5966ZM65.9969 10.2523C62.2846 6.192 57.3535 4.9 52.9766 4.9V24.9C53.2967 24.9 53.1624 24.9473 52.7572 24.7965C52.2984 24.6256 51.7284 24.2859 51.2363 23.7477L65.9969 10.2523ZM52.9766 4.9C48.5658 4.9 43.7476 6.22948 40.0607 10.1399L54.6125 23.8601C54.1745 24.3246 53.661 24.6345 53.2259 24.7965C52.8373 24.9412 52.6981 24.9 52.9766 24.9V4.9ZM40.0607 10.1399C36.4518 13.9675 35.3566 18.7625 35.3566 23H55.3566C55.3566 22.525 55.4192 22.4677 55.3478 22.6838C55.2632 22.9404 55.0482 23.398 54.6125 23.8601L40.0607 10.1399ZM35.3566 23V24.74H55.3566V23H35.3566ZM45.3566 34.74H61.0166V14.74H45.3566V34.74ZM53.4908 18.1549L53.0708 18.6349L68.1223 31.8051L68.5423 31.3251L53.4908 18.1549ZM88.4131 42.86L83.7455 51.7038L83.7455 51.7038L88.4131 42.86ZM85.0531 39.62L93.7356 34.6586L93.7356 34.6586L85.0531 39.62ZM83.8531 5.12H93.8531L83.8531 -4.88V5.12ZM72.7531 5.12H62.7531L72.7531 15.12V5.12ZM72.7531 0.199999V-9.8L62.7531 0.199999H72.7531ZM89.2531 0.199999H99.2531L89.2531 -9.8V0.199999ZM90.3931 37.94L83.1431 44.8275L83.3221 45.0111L90.3931 37.94ZM103.953 39.08H113.953L103.953 29.08V39.08ZM103.953 44V54L113.953 44H103.953ZM93.4531 34C93.1519 34 92.9982 33.9702 92.9593 33.9614C92.9267 33.954 92.9801 33.9631 93.0807 34.0162L83.7455 51.7038C86.8614 53.3483 90.1976 54 93.4531 54V34ZM93.0807 34.0162C93.1534 34.0545 93.2868 34.1392 93.4345 34.2816C93.5827 34.4245 93.6816 34.5642 93.7356 34.6586L76.3707 44.5814C78.1228 47.6476 80.6431 50.0665 83.7455 51.7038L93.0807 34.0162ZM93.7356 34.6586C93.7756 34.7287 93.8067 34.7952 93.8297 34.8533C93.8525 34.9111 93.8638 34.952 93.8683 34.9704C93.8775 35.0082 93.8531 34.9308 93.8531 34.7H73.8531C73.8531 38.0289 74.5734 41.4361 76.3707 44.5814L93.7356 34.6586ZM93.8531 34.7V5.12H73.8531V34.7H93.8531ZM83.8531 -4.88H72.7531V15.12H83.8531V-4.88ZM82.7531 5.12V0.199999H62.7531V5.12H82.7531ZM72.7531 10.2H89.2531V-9.8H72.7531V10.2ZM79.2531 0.199999V34.7H99.2531V0.199999H79.2531ZM79.2531 34.7C79.2531 37.9959 80.2281 41.7591 83.1431 44.8275L97.6431 31.0525C98.271 31.7134 98.7113 32.472 98.9712 33.2109C99.2195 33.9164 99.2531 34.4564 99.2531 34.7H79.2531ZM83.3221 45.0111C86.3095 47.9985 90.0642 49.08 93.4531 49.08V29.08C93.7996 29.08 94.4348 29.1319 95.2192 29.4242C96.036 29.7285 96.8164 30.2212 97.4642 30.8689L83.3221 45.0111ZM93.4531 49.08H103.953V29.08H93.4531V49.08ZM93.9531 39.08V44H113.953V39.08H93.9531ZM103.953 34H93.4531V54H103.953V34ZM124.39 42.86L119.722 51.7038L119.722 51.7038L124.39 42.86ZM121.03 39.62L129.712 34.6586L129.712 34.6586L121.03 39.62ZM119.83 5.12H129.83L119.83 -4.88V5.12ZM108.73 5.12H98.7297L108.73 15.12V5.12ZM108.73 0.199999V-9.8L98.7297 0.199999H108.73ZM125.23 0.199999H135.23L125.23 -9.8V0.199999ZM126.37 37.94L119.12 44.8275L119.299 45.0111L126.37 37.94ZM139.93 39.08H149.93L139.93 29.08V39.08ZM139.93 44V54L149.93 44H139.93ZM129.43 34C129.128 34 128.975 33.9702 128.936 33.9614C128.903 33.954 128.957 33.9631 129.057 34.0162L119.722 51.7038C122.838 53.3483 126.174 54 129.43 54V34ZM129.057 34.0162C129.13 34.0545 129.263 34.1392 129.411 34.2816C129.559 34.4245 129.658 34.5642 129.712 34.6586L112.347 44.5814C114.099 47.6476 116.62 50.0665 119.722 51.7038L129.057 34.0162ZM129.712 34.6586C129.752 34.7287 129.783 34.7952 129.806 34.8533C129.829 34.9111 129.84 34.952 129.845 34.9704C129.854 35.0082 129.83 34.9308 129.83 34.7H109.83C109.83 38.0289 110.55 41.4361 112.347 44.5814L129.712 34.6586ZM129.83 34.7V5.12H109.83V34.7H129.83ZM119.83 -4.88H108.73V15.12H119.83V-4.88ZM118.73 5.12V0.199999H98.7297V5.12H118.73ZM108.73 10.2H125.23V-9.8H108.73V10.2ZM115.23 0.199999V34.7H135.23V0.199999H115.23ZM115.23 34.7C115.23 37.9959 116.205 41.7591 119.12 44.8275L133.62 31.0525C134.248 31.7134 134.688 32.472 134.948 33.2109C135.196 33.9164 135.23 34.4564 135.23 34.7H115.23ZM119.299 45.0111C122.286 47.9985 126.041 49.08 129.43 49.08V29.08C129.776 29.08 130.411 29.1319 131.196 29.4242C132.013 29.7285 132.793 30.2212 133.441 30.8689L119.299 45.0111ZM129.43 49.08H139.93V29.08H129.43V49.08ZM129.93 39.08V44H149.93V39.08H129.93ZM139.93 34H129.43V54H139.93V34ZM154.066 42.98L149.447 51.8491L149.447 51.8491L154.066 42.98ZM149.566 38.66L140.773 43.4228L140.895 43.6412L149.566 38.66ZM149.566 16.34L140.895 11.3588L140.816 11.4994L149.566 16.34ZM154.066 12.02L149.447 3.15085L149.447 3.15086L154.066 12.02ZM167.746 12.02L172.366 3.15086L172.366 3.15085L167.746 12.02ZM172.186 16.34L163.436 21.1806L163.515 21.3212L172.186 16.34ZM172.186 38.66L163.47 33.7574L163.436 33.8194L172.186 38.66ZM167.746 42.98L172.366 51.8491L172.366 51.8491L167.746 42.98ZM166.426 37.7L173.497 44.7711L173.497 44.7711L166.426 37.7ZM155.386 17.3L148.421 10.1242L148.315 10.2289L155.386 17.3ZM155.386 37.7L148.315 44.7711L148.421 44.8758L155.386 37.7ZM160.906 34.48C159.526 34.48 158.899 34.222 158.686 34.1109L149.447 51.8491C153.073 53.738 157.007 54.48 160.906 54.48V34.48ZM158.686 34.1109C158.463 33.9947 158.367 33.9051 158.237 33.6788L140.895 43.6412C142.925 47.1749 145.83 49.9653 149.447 51.8491L158.686 34.1109ZM158.359 33.8972C158.25 33.6948 158.006 33.1333 158.006 31.88H138.006C138.006 35.8267 138.803 39.7852 140.773 43.4228L158.359 33.8972ZM158.006 31.88V23.12H138.006V31.88H158.006ZM158.006 23.12C158.006 21.7898 158.264 21.2761 158.317 21.1806L140.816 11.4994C138.789 15.1639 138.006 19.1702 138.006 23.12H158.006ZM158.237 21.3212C158.367 21.0949 158.463 21.0053 158.686 20.8891L149.447 3.15086C145.83 5.03469 142.925 7.82511 140.895 11.3588L158.237 21.3212ZM158.686 20.8891C158.899 20.778 159.526 20.52 160.906 20.52V0.519998C157.007 0.519998 153.073 1.26203 149.447 3.15085L158.686 20.8891ZM160.906 20.52C162.287 20.52 162.913 20.778 163.127 20.8891L172.366 3.15085C168.739 1.26203 164.806 0.519998 160.906 0.519998V20.52ZM163.127 20.8891C163.265 20.9613 163.313 21.0083 163.323 21.0173C163.331 21.0258 163.372 21.0642 163.436 21.1806L180.937 11.4994C178.938 7.88594 176.014 5.05128 172.366 3.15086L163.127 20.8891ZM163.515 21.3212C163.566 21.4095 163.806 21.8596 163.806 23.06H183.806C183.806 19.0604 182.967 15.0304 180.857 11.3588L163.515 21.3212ZM163.806 23.06V31.88H183.806V23.06H163.806ZM163.806 31.88C163.806 33.0734 163.568 33.5836 163.47 33.7574L180.902 43.5626C182.964 39.8964 183.806 35.8866 183.806 31.88H163.806ZM163.436 33.8194C163.372 33.9358 163.331 33.9742 163.323 33.9827C163.313 33.9917 163.265 34.0387 163.127 34.1109L172.366 51.8491C176.014 49.9487 178.938 47.1141 180.937 43.5006L163.436 33.8194ZM163.127 34.1109C162.913 34.222 162.287 34.48 160.906 34.48V54.48C164.806 54.48 168.739 53.738 172.366 51.8491L163.127 34.1109ZM160.906 49.68C165.181 49.68 169.838 48.4304 173.497 44.7711L159.355 30.6289C159.788 30.1959 160.278 29.9165 160.68 29.7722C161.041 29.6425 161.167 29.68 160.906 29.68V49.68ZM173.497 44.7711C177.302 40.9668 178.406 36.0849 178.406 31.88H158.406C158.406 32.3259 158.346 32.3229 158.444 32.0342C158.558 31.6981 158.83 31.1545 159.355 30.6289L173.497 44.7711ZM178.406 31.88V23.12H158.406V31.88H178.406ZM178.406 23.12C178.406 18.9151 177.302 14.0332 173.497 10.2289L159.355 24.3711C158.83 23.8455 158.558 23.3019 158.444 22.9658C158.346 22.6771 158.406 22.6741 158.406 23.12H178.406ZM173.497 10.2289C169.838 6.56961 165.181 5.32 160.906 5.32V25.32C161.167 25.32 161.041 25.3575 160.68 25.2278C160.278 25.0835 159.788 24.8041 159.355 24.3711L173.497 10.2289ZM160.906 5.32C156.603 5.32 152.048 6.60452 148.421 10.1242L162.351 24.4758C161.976 24.8403 161.541 25.092 161.163 25.2278C160.818 25.3513 160.687 25.32 160.906 25.32V5.32ZM148.315 10.2289C144.511 14.0332 143.406 18.9151 143.406 23.12H163.406C163.406 22.6741 163.467 22.6771 163.368 22.9658C163.254 23.3019 162.983 23.8455 162.457 24.3711L148.315 10.2289ZM143.406 23.12V31.88H163.406V23.12H143.406ZM143.406 31.88C143.406 36.0849 144.511 40.9668 148.315 44.7711L162.457 30.6289C162.983 31.1545 163.254 31.6981 163.368 32.0342C163.467 32.3229 163.406 32.3259 163.406 31.88H143.406ZM148.421 44.8758C152.048 48.3955 156.603 49.68 160.906 49.68V29.68C160.687 29.68 160.818 29.6487 161.163 29.7722C161.541 29.908 161.976 30.1597 162.351 30.5242L148.421 44.8758Z" fill="black" fill-opacity="0.7"/>
</g>
<defs>
<filter id="filter0_d_2_2" x="0.520004" y="0.199997" width="177.286" height="52.4" filterUnits="userSpaceOnUse" color-interpolation-filters="sRGB">
<feFlood flood-opacity="0" result="BackgroundImageFix"/>
<feColorMatrix in="SourceAlpha" type="matrix" values="0 0 0 0 0 0 0 0 0 0 0 0 0 0 0 0 0 0 127 0" result="hardAlpha"/>
<feOffset dy="4"/>
<feGaussianBlur stdDeviation="2"/>
<feComposite in2="hardAlpha" operator="out"/>
<feColorMatrix type="matrix" values="0 0 0 0 0 0 0 0 0 0 0 0 0 0 0 0 0 0 0.25 0"/>
<feBlend mode="normal" in2="BackgroundImageFix" result="effect1_dropShadow_2_2"/>
<feBlend mode="normal" in="SourceGraphic" in2="effect1_dropShadow_2_2" result="shape"/>
</filter>
</defs>
</svg>
